# xmcd
#
# Track frame offsets: 
#        150
#        13177
#        26534
#        42705
#        56173
#        70318
#        84250
#        95885
#        109428
#        121631
#        134450
#        146789
#        160039
#        173488
#        184248
#
# Disc length: 2591 seconds
#
# Revision: 0
# Processed by: cddbd v1.5.2PL0 Copyright (c) Steve Scherf et al.
# Submitted via: ExactAudioCopy v0.95b4
#
DISCID=d60a1d0f
DTITLE=Various Artist - When The Sun Goes Down
DYEAR=2002
DGENRE=Blues
TTITLE0=Robert Petaway - Catfish Blues
TTITLE1=Gus Cannon - Walk Right In
TTITLE2=Tommy Johnson - Cool Drink of Water Blues
TTITLE3=Jimmie Davis - Red Nightgown Blues
TTITLE4=Huddie Ledbetter - Midnight Special
TTITLE5=Furry Lewis - Judge Harsh Blues
TTITLE6=Blind Willie McTell - Statesboro Blues
TTITLE7=Meade Lux Lewis - Honky Tonk Train Blues
TTITLE8=Richard M Jones - Trouble In Mind
TTITLE9=Memphis Jug Band - Cocaine Habit Blues
TTITLE10=Washboard Sam - Bucket's Got A Hole In It
TTITLE11=Big Maceo - Worried Life Blues
TTITLE12=Lil Green - Why Don't You Do Right
TTITLE13=Arthur "Big Boy" Crudup - My Baby Left Me
TTITLE14=Little Richard - Get Rich Quick
EXTD=
EXTT0=
EXTT1=
EXTT2=
EXTT3=
EXTT4=
EXTT5=
EXTT6=
EXTT7=
EXTT8=
EXTT9=
EXTT10=
EXTT11=
EXTT12=
EXTT13=
EXTT14=
PLAYORDER=
